<?xml version="1.0" encoding="UTF-8"?>
<svg width="162px" height="33px" viewBox="0 0 162 33" version="1.1" xmlns="http://www.w3.org/2000/svg" xmlns:xlink="http://www.w3.org/1999/xlink">
    <!-- Generator: sketchtool 50 (54983) - http://www.bohemiancoding.com/sketch -->
    <title>C8085DD9-8205-43C3-9D90-A4AA0F2243E1</title>
    <desc>Created with sketchtool.</desc>
    <defs>
        <polygon id="path-1" points="0 33.1851852 161.844148 33.1851852 161.844148 0.939851852 0 0.939851852"></polygon>
        <polygon id="path-3" points="0 33.1851852 161.844148 33.1851852 161.844148 0.939851852 0 0.939851852"></polygon>
    </defs>
    <g id="Page-1" stroke="none" stroke-width="1" fill="none" fill-rule="evenodd">
        <g id="Write-Portfolio" transform="translate(-64.000000, -12.000000)">
            <g id="BlockSigma-Logo" transform="translate(64.000000, 12.000000)">
                <g id="Group-142" transform="translate(0.000000, -0.940089)">
                    <g id="Group-133">
                        <polygon id="Fill-1" fill="#4DA0FF" points="13.8703407 0.993185185 14.0552296 0.993185185 13.9627852 0.939851852"></polygon>
                        <polygon id="Fill-3" fill="#4DA0FF" points="13.8703407 0.993185185 13.3275259 1.30725926 14.5980444 1.30725926 14.0552296 0.993185185"></polygon>
                        <polygon id="Fill-5" fill="#4D9FFF" points="13.3271704 1.30678519 12.7855407 1.61967407 15.1393185 1.61967407 14.5976889 1.30678519"></polygon>
                        <polygon id="Fill-7" fill="#4D9EFF" points="12.7858963 1.61931852 12.2430815 1.93339259 15.6824889 1.93339259 15.1396741 1.61931852"></polygon>
                        <polygon id="Fill-9" fill="#4D9DFE" points="12.2427259 1.93291852 11.7010963 2.24580741 16.223763 2.24580741 15.6821333 1.93291852"></polygon>
                        <polygon id="Fill-11" fill="#4D9CFE" points="11.7014519 2.24545185 11.158637 2.55952593 16.7669333 2.55952593 16.2241185 2.24545185"></polygon>
                        <polygon id="Fill-13" fill="#4D9BFE" points="11.1582815 2.55905185 10.6166519 2.87194074 17.3082074 2.87194074 16.7665778 2.55905185"></polygon>
                        <polygon id="Fill-15" fill="#4D9AFE" points="10.6170074 2.87158519 10.0753778 3.18447407 17.8490074 3.18447407 17.308563 2.87158519"></polygon>
                        <polygon id="Fill-17" fill="#4D99FE" points="10.0757333 3.18411852 9.53291852 3.49819259 18.3921778 3.49819259 17.849363 3.18411852"></polygon>
                        <polygon id="Fill-19" fill="#4D98FD" points="9.53256296 3.49771852 8.99093333 3.81060741 18.9334519 3.81060741 18.3930074 3.49771852"></polygon>
                        <polygon id="Fill-21" fill="#4D97FD" points="8.99128889 3.81025185 8.44847407 4.12432593 19.4766222 4.12432593 18.9338074 3.81025185"></polygon>
                        <polygon id="Fill-23" fill="#4D96FD" points="8.44811852 4.12385185 7.90648889 4.43674074 20.0178963 4.43674074 19.4774519 4.12385185"></polygon>
                        <polygon id="Fill-25" fill="#4D95FD" points="7.90684444 4.43638519 7.36521481 4.74927407 20.5598815 4.74927407 20.0182519 4.43638519"></polygon>
                        <polygon id="Fill-27" fill="#4D94FD" points="7.36557037 4.74891852 6.82275556 5.06299259 21.1030519 5.06299259 20.560237 4.74891852"></polygon>
                        <polygon id="Fill-29" fill="#4D93FD" points="6.82251852 5.06251852 6.28088889 5.37540741 21.6444444 5.37540741 21.1028148 5.06251852"></polygon>
                        <polygon id="Fill-31" fill="#4D92FC" points="6.28112593 5.37505185 5.73831111 5.68912593 22.1874963 5.68912593 21.6446815 5.37505185"></polygon>
                        <polygon id="Fill-33" fill="#4D91FC" points="5.73807407 5.68865185 5.19644444 6.00154074 22.7288889 6.00154074 22.1872593 5.68865185"></polygon>
                        <polygon id="Fill-35" fill="#4D90FC" points="5.1968 6.00118519 4.65398519 6.31525926 23.2720593 6.31525926 22.7280593 6.00118519"></polygon>
                        <polygon id="Fill-37" fill="#4D8FFC" points="4.65362963 6.31478519 4.112 6.62767407 23.8133333 6.62767407 23.2717037 6.31478519"></polygon>
                        <polygon id="Fill-39" fill="#4D8EFC" points="4.11235556 6.62731852 3.57072593 6.94020741 24.3541333 6.94020741 23.8125037 6.62731852"></polygon>
                        <polygon id="Fill-41" fill="#4D8DFB" points="3.57108148 6.93985185 3.02826667 7.25392593 24.8973037 7.25392593 24.3544889 6.93985185"></polygon>
                        <polygon id="Fill-43" fill="#4D8CFB" points="3.02791111 7.25345185 2.48628148 7.56634074 25.4385778 7.56634074 24.8969481 7.25345185"></polygon>
                        <polygon id="Fill-45" fill="#4D8BFB" points="2.48663704 7.56598519 1.94382222 7.88005926 25.9817481 7.88005926 25.4389333 7.56598519"></polygon>
                        <polygon id="Fill-47" fill="#4D8AFB" points="1.94346667 7.87958519 1.40183704 8.19247407 26.5230222 8.19247407 25.9813926 7.87958519"></polygon>
                        <polygon id="Fill-49" fill="#4D89FB" points="1.40219259 8.19211852 0.860562963 8.50500741 27.0650074 8.50500741 26.5233778 8.19211852"></polygon>
                        <polygon id="Fill-51" fill="#4D88FA" points="0.860918519 8.50465185 0.318103704 8.81872593 27.6081778 8.81872593 27.0641778 8.50465185"></polygon>
                        <polygon id="Fill-53" fill="#4D87FA" points="0.317748148 8.81825185 0.000118518519 9.00195556 0.000118518519 9.13114074 27.9254519 9.13114074 27.9254519 9.00195556 27.6078222 8.81825185"></polygon>
                        <mask id="mask-2" fill="white">
                            <use xlink:href="#path-1"></use>
                        </mask>
                        <g id="Clip-56"></g>
                        <polygon id="Fill-55" fill="#4D86FA" mask="url(#mask-2)" points="0 9.44474074 27.9253333 9.44474074 27.9253333 9.13066667 0 9.13066667"></polygon>
                        <polygon id="Fill-57" fill="#4D85FA" mask="url(#mask-2)" points="0 9.75644444 27.9253333 9.75644444 27.9253333 9.44355556 0 9.44355556"></polygon>
                        <polygon id="Fill-58" fill="#4D84FA" mask="url(#mask-2)" points="0 10.0705185 27.9253333 10.0705185 27.9253333 9.75644444 0 9.75644444"></polygon>
                        <polygon id="Fill-59" fill="#4D83FA" mask="url(#mask-2)" points="0 10.3834074 27.9253333 10.3834074 27.9253333 10.0705185 0 10.0705185"></polygon>
                        <polygon id="Fill-60" fill="#4D82F9" mask="url(#mask-2)" points="0 10.6951111 27.9253333 10.6951111 27.9253333 10.3822222 0 10.3822222"></polygon>
                        <polygon id="Fill-61" fill="#4D81F9" mask="url(#mask-2)" points="0 11.0091852 27.9253333 11.0091852 27.9253333 10.6951111 0 10.6951111"></polygon>
                        <polygon id="Fill-62" fill="#4D80F9" mask="url(#mask-2)" points="0 11.3220741 27.9253333 11.3220741 27.9253333 11.0091852 0 11.0091852"></polygon>
                        <polygon id="Fill-63" fill="#4D7FF9" mask="url(#mask-2)" points="0 11.634963 27.9253333 11.634963 27.9253333 11.3208889 0 11.3208889"></polygon>
                        <polygon id="Fill-64" fill="#4D7EF9" mask="url(#mask-2)" points="0 11.9478519 27.9253333 11.9478519 27.9253333 11.634963 0 11.634963"></polygon>
                        <polygon id="Fill-65" fill="#4D7DF8" mask="url(#mask-2)" points="0 12.2619259 27.9253333 12.2619259 27.9253333 11.9478519 0 11.9478519"></polygon>
                        <polygon id="Fill-66" fill="#4D7CF8" mask="url(#mask-2)" points="0 12.5736296 27.9253333 12.5736296 27.9253333 12.2607407 0 12.2607407"></polygon>
                        <polygon id="Fill-67" fill="#4D7BF8" mask="url(#mask-2)" points="0 12.8865185 27.9253333 12.8865185 27.9253333 12.5736296 0 12.5736296"></polygon>
                        <polygon id="Fill-68" fill="#4D7AF8" mask="url(#mask-2)" points="0 13.2005926 27.9253333 13.2005926 27.9253333 12.8865185 0 12.8865185"></polygon>
                        <polygon id="Fill-69" fill="#4D79F8" mask="url(#mask-2)" points="0 13.5122963 27.9253333 13.5122963 27.9253333 13.1994074 0 13.1994074"></polygon>
                        <polygon id="Fill-70" fill="#4D78F7" mask="url(#mask-2)" points="0 13.8263704 27.9253333 13.8263704 27.9253333 13.5122963 0 13.5122963"></polygon>
                        <polygon id="Fill-71" fill="#4D77F7" mask="url(#mask-2)" points="0 14.1392593 27.9253333 14.1392593 27.9253333 13.8263704 0 13.8263704"></polygon>
                        <polygon id="Fill-72" fill="#4D76F7" mask="url(#mask-2)" points="0 14.450963 27.9253333 14.450963 27.9253333 14.1380741 0 14.1380741"></polygon>
                        <polygon id="Fill-73" fill="#4D75F7" mask="url(#mask-2)" points="0 14.765037 27.9253333 14.765037 27.9253333 14.450963 0 14.450963"></polygon>
                        <polygon id="Fill-74" fill="#4D74F7" mask="url(#mask-2)" points="0 15.0779259 27.9253333 15.0779259 27.9253333 14.765037 0 14.765037"></polygon>
                        <polygon id="Fill-75" fill="#4D73F7" mask="url(#mask-2)" points="0 15.3908148 27.9253333 15.3908148 27.9253333 15.0767407 0 15.0767407"></polygon>
                        <polygon id="Fill-76" fill="#4D72F6" mask="url(#mask-2)" points="0 15.7037037 27.9253333 15.7037037 27.9253333 15.3908148 0 15.3908148"></polygon>
                        <polygon id="Fill-77" fill="#4D71F6" mask="url(#mask-2)" points="0 16.0165926 27.9253333 16.0165926 27.9253333 15.7025185 0 15.7025185"></polygon>
                        <polygon id="Fill-78" fill="#4D70F6" mask="url(#mask-2)" points="0 16.3294815 27.9253333 16.3294815 27.9253333 16.0165926 0 16.0165926"></polygon>
                        <polygon id="Fill-79" fill="#4D6FF6" mask="url(#mask-2)" points="0 16.6423704 27.9253333 16.6423704 27.9253333 16.3294815 0 16.3294815"></polygon>
                        <polygon id="Fill-80" fill="#4D6EF6" mask="url(#mask-2)" points="0 16.9564444 27.9253333 16.9564444 27.9253333 16.6423704 0 16.6423704"></polygon>
                        <polygon id="Fill-81" fill="#4D6CF5" mask="url(#mask-2)" points="0 17.2681481 27.9253333 17.2681481 27.9253333 16.9552593 0 16.9552593"></polygon>
                        <polygon id="Fill-82" fill="#4D6BF5" mask="url(#mask-2)" points="0 17.5822222 27.9253333 17.5822222 27.9253333 17.2681481 0 17.2681481"></polygon>
                        <polygon id="Fill-83" fill="#4D6AF5" mask="url(#mask-2)" points="0 17.8939259 27.9253333 17.8939259 27.9253333 17.581037 0 17.581037"></polygon>
                        <polygon id="Fill-84" fill="#4D69F5" mask="url(#mask-2)" points="0 18.2068148 27.9253333 18.2068148 27.9253333 17.8939259 0 17.8939259"></polygon>
                        <polygon id="Fill-85" fill="#4D68F5" mask="url(#mask-2)" points="0 18.5208889 27.9253333 18.5208889 27.9253333 18.2068148 0 18.2068148"></polygon>
                        <polygon id="Fill-86" fill="#4D67F4" mask="url(#mask-2)" points="0 18.8337778 27.9253333 18.8337778 27.9253333 18.5208889 0 18.5208889"></polygon>
                        <polygon id="Fill-87" fill="#4D66F4" mask="url(#mask-2)" points="0 19.1466667 27.9253333 19.1466667 27.9253333 18.8325926 0 18.8325926"></polygon>
                        <polygon id="Fill-88" fill="#4D65F4" mask="url(#mask-2)" points="0 19.4595556 27.9253333 19.4595556 27.9253333 19.1466667 0 19.1466667"></polygon>
                        <polygon id="Fill-89" fill="#4D64F4" mask="url(#mask-2)" points="0 19.7724444 27.9253333 19.7724444 27.9253333 19.4583704 0 19.4583704"></polygon>
                        <polygon id="Fill-90" fill="#4D63F4" mask="url(#mask-2)" points="0 20.0853333 27.9253333 20.0853333 27.9253333 19.7724444 0 19.7724444"></polygon>
                        <polygon id="Fill-91" fill="#4D62F4" mask="url(#mask-2)" points="0 20.3982222 27.9253333 20.3982222 27.9253333 20.0853333 0 20.0853333"></polygon>
                        <polygon id="Fill-92" fill="#4D61F3" mask="url(#mask-2)" points="0 20.7111111 27.9253333 20.7111111 27.9253333 20.397037 0 20.397037"></polygon>
                        <polygon id="Fill-93" fill="#4D60F3" mask="url(#mask-2)" points="0 21.024 27.9253333 21.024 27.9253333 20.7111111 0 20.7111111"></polygon>
                        <polygon id="Fill-94" fill="#4D5FF3" mask="url(#mask-2)" points="0 21.3380741 27.9253333 21.3380741 27.9253333 21.024 0 21.024"></polygon>
                        <polygon id="Fill-95" fill="#4D5EF3" mask="url(#mask-2)" points="0 21.6497778 27.9253333 21.6497778 27.9253333 21.3368889 0 21.3368889"></polygon>
                        <polygon id="Fill-96" fill="#4D5DF3" mask="url(#mask-2)" points="0 21.9626667 27.9253333 21.9626667 27.9253333 21.6497778 0 21.6497778"></polygon>
                        <polygon id="Fill-97" fill="#4D5CF2" mask="url(#mask-2)" points="0 22.2767407 27.9253333 22.2767407 27.9253333 21.9626667 0 21.9626667"></polygon>
                        <polygon id="Fill-98" fill="#4D5BF2" mask="url(#mask-2)" points="0 22.5884444 27.9253333 22.5884444 27.9253333 22.2755556 0 22.2755556"></polygon>
                        <polygon id="Fill-99" fill="#4D5AF2" mask="url(#mask-2)" points="0 22.9025185 27.9253333 22.9025185 27.9253333 22.5884444 0 22.5884444"></polygon>
                        <polygon id="Fill-100" fill="#4D59F2" mask="url(#mask-2)" points="0 23.2154074 27.9253333 23.2154074 27.9253333 22.9025185 0 22.9025185"></polygon>
                        <polygon id="Fill-101" fill="#4D58F2" mask="url(#mask-2)" points="0 23.5282963 27.9253333 23.5282963 27.9253333 23.2142222 0 23.2142222"></polygon>
                        <polygon id="Fill-102" fill="#4D57F1" mask="url(#mask-2)" points="0 23.8411852 27.9253333 23.8411852 27.9253333 23.5282963 0 23.5282963"></polygon>
                        <polygon id="Fill-103" fill="#4D56F1" mask="url(#mask-2)" points="0 24.1540741 27.9253333 24.1540741 27.9253333 23.8411852 0 23.8411852"></polygon>
                        <polygon id="Fill-104" fill="#4D55F1" mask="url(#mask-2)" points="0 24.466963 27.9253333 24.466963 27.9253333 24.1528889 0 24.1528889"></polygon>
                        <polygon id="Fill-105" fill="#4D54F1" mask="url(#mask-2)" points="0 24.7798519 27.9253333 24.7798519 27.9253333 24.466963 0 24.466963"></polygon>
                        <polygon id="Fill-106" fill="#4D53F1" mask="url(#mask-2)" points="0 25.0939259 27.9253333 25.0939259 27.9253333 24.7798519 0 24.7798519"></polygon>
                        <polygon id="Fill-107" fill="#4D52F1" mask="url(#mask-2)" points="0 25.0934519 0 25.1242667 0.488296296 25.4063407 27.437037 25.4063407 27.9253333 25.1242667 27.9253333 25.0934519"></polygon>
                        <polygon id="Fill-108" fill="#4D51F0" mask="url(#mask-2)" points="0.487822222 25.4059852 1.02945185 25.7188741 26.8961185 25.7188741 27.4377481 25.4059852"></polygon>
                        <polygon id="Fill-109" fill="#4D50F0" mask="url(#mask-2)" points="1.0290963 25.7185185 1.57191111 26.0325926 26.3529481 26.0325926 26.895763 25.7185185"></polygon>
                        <polygon id="Fill-110" fill="#4D4FF0" mask="url(#mask-2)" points="1.57238519 26.0321185 2.11401481 26.3450074 25.8117926 26.3450074 26.3534222 26.0321185"></polygon>
                        <polygon id="Fill-111" fill="#4D4EF0" mask="url(#mask-2)" points="2.11365926 26.3446519 2.65647407 26.6587259 25.2686222 26.6587259 25.811437 26.3446519"></polygon>
                        <polygon id="Fill-112" fill="#4D4DF0" mask="url(#mask-2)" points="2.65694815 26.6582519 3.19857778 26.9711407 24.7274667 26.9711407 25.2679111 26.6582519"></polygon>
                        <polygon id="Fill-113" fill="#4D4CEF" mask="url(#mask-2)" points="3.19822222 26.9707852 3.74103704 27.2848593 24.1842963 27.2848593 24.7271111 26.9707852"></polygon>
                        <polygon id="Fill-114" fill="#4D4BEF" mask="url(#mask-2)" points="3.74151111 27.2843852 4.28314074 27.5972741 23.6419556 27.5972741 24.1835852 27.2843852"></polygon>
                        <polygon id="Fill-115" fill="#4D4AEF" mask="url(#mask-2)" points="4.28278519 27.5969185 4.82441481 27.9098074 23.1011556 27.9098074 23.6427852 27.5969185"></polygon>
                        <polygon id="Fill-116" fill="#4D49EF" mask="url(#mask-2)" points="4.82417778 27.9094519 5.36699259 28.2235259 22.5581037 28.2235259 23.1009185 27.9094519"></polygon>
                        <polygon id="Fill-117" fill="#4D48EF" mask="url(#mask-2)" points="5.36746667 28.2230519 5.9090963 28.5359407 22.0169481 28.5359407 22.5573926 28.2230519"></polygon>
                        <polygon id="Fill-118" fill="#4D47EE" mask="url(#mask-2)" points="5.90874074 28.5355852 6.45392593 28.8508444 21.4714074 28.8508444 22.0165926 28.5355852"></polygon>
                        <polygon id="Fill-119" fill="#4D46EE" mask="url(#mask-2)" points="6.45380741 28.8502519 6.99306667 29.1619556 20.9320296 29.1619556 21.4712889 28.8502519"></polygon>
                        <polygon id="Fill-120" fill="#4D45EE" mask="url(#mask-2)" points="6.9933037 29.1617185 7.53493333 29.4746074 20.390637 29.4746074 20.9322667 29.1617185"></polygon>
                        <polygon id="Fill-121" fill="#4D44EE" mask="url(#mask-2)" points="7.5346963 29.4742519 8.07751111 29.7883259 19.8475852 29.7883259 20.3904 29.4742519"></polygon>
                        <polygon id="Fill-122" fill="#4D43EE" mask="url(#mask-2)" points="8.07786667 29.7878519 8.6194963 30.1007407 19.3063111 30.1007407 19.8479407 29.7878519"></polygon>
                        <polygon id="Fill-123" fill="#4D42EE" mask="url(#mask-2)" points="8.61925926 30.1003852 9.16444444 30.4156444 18.7608889 30.4156444 19.3060741 30.1003852"></polygon>
                        <polygon id="Fill-124" fill="#4D41ED" mask="url(#mask-2)" points="9.16432593 30.4150519 9.70358519 30.7267556 18.2215111 30.7267556 18.7607704 30.4150519"></polygon>
                        <polygon id="Fill-125" fill="#4D40ED" mask="url(#mask-2)" points="9.70382222 30.7265185 10.2490074 31.0405926 17.676563 31.0405926 18.2217481 30.7265185"></polygon>
                        <polygon id="Fill-126" fill="#4D3FED" mask="url(#mask-2)" points="10.2488889 31.0411852 10.7905185 31.3540741 17.1348148 31.3540741 17.6764444 31.0411852"></polygon>
                        <polygon id="Fill-127" fill="#4D3EED" mask="url(#mask-2)" points="10.7902815 31.3537185 11.3295407 31.6654222 16.5953185 31.6654222 17.1345778 31.3537185"></polygon>
                        <polygon id="Fill-128" fill="#4D3DED" mask="url(#mask-2)" points="11.3297778 31.6651852 11.874963 31.9804444 16.0503704 31.9804444 16.5955556 31.6651852"></polygon>
                        <polygon id="Fill-129" fill="#4D3CEC" mask="url(#mask-2)" points="11.8748444 31.9798519 12.4164741 32.2927407 15.5086222 32.2927407 16.0502519 31.9798519"></polygon>
                        <polygon id="Fill-130" fill="#4D3BEC" mask="url(#mask-2)" points="12.416237 32.2923852 12.9590519 32.6064593 14.9655704 32.6064593 15.5095704 32.2923852"></polygon>
                        <polygon id="Fill-131" fill="#4D3AEC" mask="url(#mask-2)" points="12.9594074 32.6059852 13.501037 32.9188741 14.4242963 32.9188741 14.9659259 32.6059852"></polygon>
                        <polygon id="Fill-132" fill="#4D3AEC" mask="url(#mask-2)" points="13.5008 32.9185185 13.9630222 33.1851852 14.4240593 32.9185185"></polygon>
                    </g>
                    <polygon id="Fill-134" fill="#69BEF8" points="13.7173333 16.9576296 14.0017778 16.9576296 14.0017778 2.23407407 13.7173333 2.23407407"></polygon>
                    <polygon id="Fill-136" fill="#69BEF8" points="26.5647407 24.4862815 13.7884444 17.0800593 13.9318519 16.8335407 26.7081481 24.239763"></polygon>
                    <polygon id="Fill-138" fill="#69BEF8" points="1.15496296 24.4862815 1.01155556 24.239763 13.789037 16.8335407 13.9312593 17.0800593"></polygon>
                    <path d="M1.36853333,24.1992296 L13.8603852,31.4110815 L26.3510519,24.1992296 L26.3510519,9.77434074 L13.8603852,2.56248889 L1.36853333,9.77434074 L1.36853333,24.1992296 Z M13.8603852,32.0688593 L0.798459259,24.5275259 L0.798459259,9.44604444 L13.8603852,1.90471111 L26.9211259,9.44604444 L26.9211259,24.5275259 L13.8603852,32.0688593 Z" id="Fill-140" fill="#69BEF8"></path>
                </g>
                <polygon id="Fill-143" fill="#69BEF8" points="0.9408 8.9170963 13.9446519 16.4525037 26.7813926 8.91472593 26.4922074 8.42405926 13.9434667 15.7923556 1.22642963 8.42287407"></polygon>
                <polygon id="Fill-144" fill="#69BEF8" points="13.6592593 30.8003556 14.2305185 30.8003556 14.2305185 16.1230222 13.6592593 16.1230222"></polygon>
                <g id="Group-157" transform="translate(0.000000, -0.940089)">
                    <path d="M44.7823407,23.1946667 C45.878637,23.1946667 46.7201185,22.9682963 47.3079704,22.5155556 C47.894637,22.0628148 48.1897481,21.424 48.1897481,20.5979259 C48.1897481,19.8038519 47.9029333,19.1531852 47.3316741,18.6435556 C46.6964148,18.0722963 45.782637,17.7866667 44.5915259,17.7866667 L38.8978963,17.7866667 L38.8978963,23.1946667 L44.7823407,23.1946667 Z M38.8978963,16.1665185 L44.1873778,16.1665185 C45.6475259,16.1665185 46.6253037,15.6651852 47.1171556,14.6660741 C47.2913778,14.3164444 47.3790815,13.9383704 47.3790815,13.5342222 C47.3790815,13.1288889 47.3233778,12.7721481 47.2119704,12.4616296 C47.1017481,12.1522963 46.9263407,11.8785185 46.6881185,11.6402963 C46.1642667,11.0844444 45.3938963,10.8071111 44.3781926,10.8071111 L38.8978963,10.8071111 L38.8978963,16.1665185 Z M49.1663407,13.2841481 C49.1663407,15.0157037 48.4587852,16.1985185 47.0460444,16.8337778 C48.3473778,17.2616296 49.2374519,18.0485926 49.7138963,19.1911111 C49.8881185,19.6367407 49.9758222,20.1534815 49.9758222,20.7401481 C49.9758222,22.6459259 48.9672296,23.9164444 46.9500444,24.5528889 C46.2839704,24.7745185 45.4970074,24.8859259 44.5915259,24.8859259 L37.1118222,24.8859259 L37.1118222,9.11466667 L44.1873778,9.11466667 C45.8857481,9.11466667 47.1799704,9.5757037 48.0700444,10.4965926 C48.8001185,11.2266667 49.1663407,12.157037 49.1663407,13.2841481 Z" id="Fill-145" fill="#4DA0FF"></path>
                    <mask id="mask-4" fill="white">
                        <use xlink:href="#path-3"></use>
                    </mask>
                    <g id="Clip-148"></g>
                    <polygon id="Fill-147" fill="#4DA0FF" mask="url(#mask-4)" points="52.5001481 24.8853333 54.2874074 24.8853333 54.2874074 8.20977778 52.5001481 8.20977778"></polygon>
                    <path d="M62.5531259,23.456237 C63.8390519,23.456237 64.8559407,23.0117926 65.6026074,22.1217185 C66.3172741,21.280237 66.6752,20.2171259 66.6752,18.9300148 C66.6752,17.6440889 66.3172741,16.5797926 65.6026074,15.7371259 C64.8559407,14.848237 63.8390519,14.4026074 62.5531259,14.4026074 C61.2672,14.4026074 60.2503111,14.848237 59.5036444,15.7371259 C58.7889778,16.5797926 58.432237,17.6440889 58.432237,18.9300148 C58.432237,20.2171259 58.7889778,21.280237 59.5036444,22.1217185 C60.2503111,23.0117926 61.2672,23.456237 62.5531259,23.456237 M62.5531259,12.7836444 C64.3320889,12.7836444 65.7768296,13.3797926 66.8885333,14.5709037 C67.9374222,15.7134222 68.4612741,17.1664593 68.4612741,18.9300148 C68.4612741,20.6923852 67.9374222,22.1466074 66.8885333,23.2891259 C65.7768296,24.480237 64.3320889,25.0752 62.5531259,25.0752 C60.774163,25.0752 59.3294222,24.480237 58.2177185,23.2891259 C57.1700148,22.1466074 56.6449778,20.6923852 56.6449778,18.9300148 C56.6449778,17.1664593 57.1700148,15.7134222 58.2177185,14.5709037 C59.3294222,13.3797926 60.774163,12.7836444 62.5531259,12.7836444" id="Fill-149" fill="#4DA0FF" mask="url(#mask-4)"></path>
                    <path d="M76.3228444,23.456237 C77.0849185,23.456237 77.7592889,23.2417185 78.3471407,22.8126815 C78.9349926,22.3848296 79.3640296,21.8277926 79.6342519,21.1451259 L81.5637333,21.1451259 C81.1975111,22.3208296 80.531437,23.2654222 79.5619556,23.9800889 C78.5450667,24.7113481 77.3385481,25.0752 75.9412148,25.0752 C74.1942519,25.0752 72.7732148,24.480237 71.6769185,23.2891259 C70.6138074,22.1300148 70.0804741,20.6769778 70.0804741,18.9300148 C70.0804741,17.1830519 70.6138074,15.7288296 71.6769185,14.5709037 C72.7732148,13.3797926 74.1942519,12.7836444 75.9412148,12.7836444 C77.3385481,12.7836444 78.5450667,13.1498667 79.5619556,13.8799407 C80.531437,14.5934222 81.1975111,15.5392 81.5637333,16.7149037 L79.6342519,16.7149037 C79.3640296,16.0310519 78.9349926,15.4763852 78.3471407,15.046163 C77.7592889,14.6183111 77.0849185,14.4026074 76.3228444,14.4026074 C75.5607704,14.4026074 74.9136593,14.5223111 74.3815111,14.7605333 C73.849363,14.9987556 73.4001778,15.3246815 73.0351407,15.7371259 C72.2564741,16.5952 71.8677333,17.6594963 71.8677333,18.9300148 C71.8677333,20.2005333 72.2564741,21.2636444 73.0351407,22.1217185 C73.8292148,23.0117926 74.9255111,23.456237 76.3228444,23.456237" id="Fill-150" fill="#4DA0FF" mask="url(#mask-4)"></path>
                    <polygon id="Fill-151" fill="#4DA0FF" mask="url(#mask-4)" points="89.0202074 17.6668444 94.1662815 24.8858074 91.9736889 24.8858074 87.8053926 18.9065481 85.5653926 21.1216593 85.5653926 24.8858074 83.7793185 24.8858074 83.7793185 8.21025185 85.5653926 8.21025185 85.5653926 18.8816593 91.3076148 12.9746963 93.8083556 12.9746963"></polygon>
                    <path d="M98.5728,11.8300444 C98.2705778,12.0919704 98.0679111,12.3823407 97.9648,12.6987852 C97.8616889,13.0176 97.8107259,13.3541926 97.8107259,13.7121185 C97.8107259,14.0700444 97.9648,14.3995259 98.2753185,14.700563 C98.5846519,15.0027852 98.9923556,15.2576 99.5019852,15.462637 C100.009244,15.6688593 100.589985,15.852563 101.240652,16.0101926 C101.891319,16.1701926 102.555022,16.332563 103.229393,16.4984889 C103.904948,16.6656 104.567467,16.8564148 105.219319,17.0709333 C105.869985,17.2854519 106.449541,17.5592296 106.957985,17.8922667 C108.085096,18.6081185 108.649244,19.5847111 108.649244,20.8232296 C108.649244,22.2999704 108.098133,23.4270815 106.993541,24.2057481 C105.890133,24.9844148 104.361244,25.3731556 102.408059,25.3731556 C100.201244,25.3731556 98.5170963,24.9121185 97.3579852,23.9912296 C96.3256889,23.1651556 95.737837,21.9894519 95.5944296,20.4653037 L97.4528,20.4653037 C97.5156148,21.5461926 98.0406519,22.3722667 99.0255407,22.9435259 C99.8824296,23.4353778 101.017837,23.6818963 102.431763,23.6818963 C105.38643,23.6818963 106.86317,22.7527111 106.86317,20.8943407 C106.86317,20.2590815 106.597689,19.7589333 106.064356,19.3938963 C105.532207,19.0276741 104.866133,18.726637 104.063763,18.4884148 C103.261393,18.2501926 102.396207,18.0273778 101.467022,17.8223407 C100.537837,17.6149333 99.6726519,17.3482667 98.8702815,17.0235259 C98.0679111,16.6976 97.4006519,16.268563 96.8696889,15.7364148 C96.3375407,15.2054519 96.0708741,14.4860444 96.0708741,13.5817481 C96.0708741,12.294637 96.5639111,11.2469333 97.5488,10.4362667 C98.5325037,9.62678519 100.017541,9.22145185 102.003911,9.22145185 C104.004504,9.22145185 105.552356,9.68248889 106.648652,10.6033778 C107.648948,11.4128593 108.181096,12.4534519 108.245096,13.7239704 L106.41043,13.7239704 C106.251615,12.4214519 105.410133,11.5562667 103.8848,11.1272296 C103.344356,10.9684148 102.673541,10.8890074 101.872356,10.8890074 C101.069985,10.8890074 100.395615,10.9802667 99.8468741,11.1639704 C99.2993185,11.3464889 98.873837,11.5681185 98.5728,11.8300444" id="Fill-152" fill="#4DA0FF" mask="url(#mask-4)"></path>
                    <path d="M111.031704,25.1828148 L112.817778,25.1828148 L112.817778,13.2705185 L111.031704,13.2705185 L111.031704,25.1828148 Z M110.960593,11.2699259 L112.890074,11.2699259 L112.890074,8.93511111 L110.960593,8.93511111 L110.960593,11.2699259 Z" id="Fill-153" fill="#4DA0FF" mask="url(#mask-4)"></path>
                    <path d="M121.179852,23.5626667 C121.830519,23.5626667 122.410074,23.4477037 122.918519,23.2177778 C123.426963,22.9878519 123.863111,22.6737778 124.229333,22.2755556 C124.942815,21.4506667 125.300741,20.4017778 125.300741,19.1324444 C125.300741,17.8607407 124.942815,16.813037 124.229333,15.986963 C123.450667,15.1300741 122.433778,14.6998519 121.179852,14.6998519 C119.893926,14.6998519 118.860444,15.1300741 118.082963,15.986963 C117.336296,16.8284444 116.962963,17.8773333 116.962963,19.1324444 C116.962963,20.3863704 117.336296,21.4340741 118.082963,22.2755556 C118.860444,23.1336296 119.893926,23.5626667 121.179852,23.5626667 M125.204741,15.1774815 L125.204741,13.2705185 L126.992,13.2705185 L126.992,24.8248889 C126.992,26.541037 126.503704,27.8459259 125.527111,28.7442963 C124.550519,29.6414815 123.236148,30.0894815 121.584,30.0894815 C119.933037,30.0894815 118.64237,29.7718519 117.713185,29.1365926 C116.784,28.5013333 116.153481,27.6598519 115.819259,26.610963 L117.797333,26.610963 C118.304593,27.8506667 119.464889,28.4705185 121.274667,28.4705185 C122.656593,28.4705185 123.656889,28.1517037 124.276741,27.5176296 C124.895407,26.8823704 125.204741,25.9448889 125.204741,24.7063704 L125.204741,23.0625185 C124.236444,24.4764444 122.815407,25.1828148 120.94163,25.1828148 C119.226667,25.1828148 117.828148,24.594963 116.748444,23.4192593 C115.700741,22.2755556 115.176889,20.8474074 115.176889,19.1324444 C115.176889,17.4162963 115.700741,15.986963 116.748444,14.8444444 C117.828148,13.6675556 119.269333,13.0808889 121.072,13.0808889 C122.874667,13.0808889 124.253037,13.7801481 125.204741,15.1774815" id="Fill-154" fill="#4DA0FF" mask="url(#mask-4)"></path>
                    <path d="M131.875556,15.0812444 C132.66963,13.7479111 133.876148,13.081837 135.496296,13.081837 C136.291556,13.081837 137.025185,13.2916148 137.700741,13.7123556 C138.375111,14.1330963 138.903704,14.7245037 139.284148,15.4865778 C139.824593,14.4862815 140.666074,13.7716148 141.809778,13.3425778 C142.270815,13.1683556 142.789926,13.081837 143.370667,13.081837 C143.950222,13.081837 144.504889,13.1956148 145.037037,13.4267259 C145.569185,13.6566519 146.042074,13.9861333 146.455704,14.4151704 C147.344593,15.3668741 147.789037,16.5591704 147.789037,17.9885037 L147.789037,25.1825778 L146.001778,25.1825778 L146.001778,18.0359111 C146.001778,17.0510222 145.724444,16.2415407 145.168593,15.6050963 C144.612741,15.0030222 143.90637,14.7008 143.048296,14.7008 C142.142815,14.7008 141.389037,14.9947259 140.785778,15.5825778 C140.149333,16.185837 139.832889,17.0119111 139.832889,18.0596148 L139.832889,25.1825778 L138.04563,25.1825778 L138.04563,18.0359111 C138.04563,17.0510222 137.768296,16.2415407 137.211259,15.6050963 C136.655407,15.0030222 135.949037,14.7008 135.092148,14.7008 C134.186667,14.7008 133.431704,14.9947259 132.828444,15.5825778 C132.193185,16.185837 131.875556,17.0119111 131.875556,18.0596148 L131.875556,25.1825778 L130.089481,25.1825778 L130.089481,13.2714667 L131.875556,13.2714667 L131.875556,15.0812444 Z" id="Fill-155" fill="#4DA0FF" mask="url(#mask-4)"></path>
                    <path d="M156.031763,23.7536 C157.317689,23.7536 158.334578,23.3091556 159.081244,22.4190815 C159.795911,21.5776 160.153837,20.5133037 160.153837,19.2273778 C160.153837,17.9402667 159.795911,16.8759704 159.081244,16.0344889 C158.334578,15.1444148 157.317689,14.6999704 156.031763,14.6999704 C154.761244,14.6999704 153.728948,15.1444148 152.934874,16.0344889 C152.188207,16.8759704 151.814874,17.9402667 151.814874,19.2273778 C151.814874,20.5133037 152.188207,21.5776 152.934874,22.4190815 C153.728948,23.3091556 154.761244,23.7536 156.031763,23.7536 Z M160.057837,23.2771556 C159.104948,24.6733037 157.683911,25.372563 155.793541,25.372563 C154.078578,25.372563 152.680059,24.7776 151.600356,23.5853037 C150.552652,22.4107852 150.0288,20.9589333 150.0288,19.2273778 C150.0288,17.4958222 150.552652,16.0427852 151.600356,14.8670815 C152.680059,13.6759704 154.117689,13.0810074 155.912059,13.0810074 C157.707615,13.0810074 159.088356,13.7873778 160.057837,15.2013037 L160.057837,13.270637 L161.843911,13.270637 L161.843911,25.1829333 L160.057837,25.1829333 L160.057837,23.2771556 Z" id="Fill-156" fill="#4DA0FF" mask="url(#mask-4)"></path>
                </g>
            </g>
        </g>
    </g>
</svg>